HIERARCHY
ROOT Hips
{
  OFFSET 0 101.553 -1.50301
  CHANNELS 6 Xposition Yposition Zposition Zrotation Xrotation Yrotation
  JOINT Spine
  {
    OFFSET 0 0 4.66705
    CHANNELS 6 Xposition Yposition Zposition Zrotation Xrotation Yrotation
    JOINT Spine1
    {
      OFFSET 9.3341 0 0
      CHANNELS 6 Xposition Yposition Zposition Zrotation Xrotation Yrotation
      JOINT Spine2
      {
        OFFSET 11.0269 0 0
        CHANNELS 6 Xposition Yposition Zposition Zrotation Xrotation Yrotation
        JOINT Neck
        {
          OFFSET 27.2124 0 -10.2659
          CHANNELS 6 Xposition Yposition Zposition Zrotation Xrotation Yrotation
          JOINT Head
          {
            OFFSET 10.9224 0 0
            CHANNELS 6 Xposition Yposition Zposition Zrotation Xrotation Yrotation
            End Site
            {
              OFFSET 0 0 0
            }
          }
        }
        JOINT RightShoulder
        {
          OFFSET 23.8429 -1.55531 -7.12573
          CHANNELS 6 Xposition Yposition Zposition Zrotation Xrotation Yrotation
          JOINT RightArm
          {
            OFFSET 14.1892 0 0
            CHANNELS 6 Xposition Yposition Zposition Zrotation Xrotation Yrotation
            JOINT RightForeArm
            {
              OFFSET 29.5651 0 0
              CHANNELS 6 Xposition Yposition Zposition Zrotation Xrotation Yrotation
              JOINT RightHand
              {
                OFFSET 25.3936 0 0
                CHANNELS 6 Xposition Yposition Zposition Zrotation Xrotation Yrotation
                JOINT RightFingerBase
                {
                  OFFSET 2.18163 -1.45065e-005 0
                  CHANNELS 6 Xposition Yposition Zposition Zrotation Xrotation Yrotation
                  JOINT RightHandMiddle1
                  {
                    OFFSET 6.77462 0.08652 -1.22157
                    CHANNELS 6 Xposition Yposition Zposition Zrotation Xrotation Yrotation
                    End Site
                    {
                      OFFSET 0 0 0
                    }
                  }
                }
              }
            }
          }
        }
        JOINT LeftShoulder
        {
          OFFSET 23.8431 1.55531 -7.12577
          CHANNELS 6 Xposition Yposition Zposition Zrotation Xrotation Yrotation
          JOINT LeftArm
          {
            OFFSET -14.1892 0.000696551 0
            CHANNELS 6 Xposition Yposition Zposition Zrotation Xrotation Yrotation
            JOINT LeftForeArm
            {
              OFFSET -29.5651 0 0
              CHANNELS 6 Xposition Yposition Zposition Zrotation Xrotation Yrotation
              JOINT LeftHand
              {
                OFFSET -25.3936 0 0
                CHANNELS 6 Xposition Yposition Zposition Zrotation Xrotation Yrotation
                JOINT LeftFingerBase
                {
                  OFFSET -2.18182 -0.000550395 0
                  CHANNELS 6 Xposition Yposition Zposition Zrotation Xrotation Yrotation
                  JOINT LeftHandMiddle1
                  {
                    OFFSET -6.77444 -0.086014 1.22158
                    CHANNELS 6 Xposition Yposition Zposition Zrotation Xrotation Yrotation
                    End Site
                    {
                      OFFSET 0 0 0
                    }
                  }
                }
              }
            }
          }
        }
      }
    }
  }
  JOINT RightUpLeg
  {
    OFFSET -8.89671 -5.28428 -4.10676
    CHANNELS 6 Xposition Yposition Zposition Zrotation Xrotation Yrotation
    JOINT RightLeg
    {
      OFFSET 43.676 0 0
      CHANNELS 6 Xposition Yposition Zposition Zrotation Xrotation Yrotation
      JOINT RightFoot
      {
        OFFSET 45.3154 0 0
        CHANNELS 6 Xposition Yposition Zposition Zrotation Xrotation Yrotation
        JOINT RightToeBase
        {
          OFFSET 14.6877 0 0
          CHANNELS 6 Xposition Yposition Zposition Zrotation Xrotation Yrotation
          End Site
          {
            OFFSET 0 0 0
          }
        }
      }
    }
  }
  JOINT LeftUpLeg
  {
    OFFSET 8.89671 -5.28429 -4.10671
    CHANNELS 6 Xposition Yposition Zposition Zrotation Xrotation Yrotation
    JOINT LeftLeg
    {
      OFFSET -43.676 0 0
      CHANNELS 6 Xposition Yposition Zposition Zrotation Xrotation Yrotation
      JOINT LeftFoot
      {
        OFFSET -45.3154 0 0
        CHANNELS 6 Xposition Yposition Zposition Zrotation Xrotation Yrotation
        JOINT LeftToeBase
        {
          OFFSET -14.6877 0 0
          CHANNELS 6 Xposition Yposition Zposition Zrotation Xrotation Yrotation
          End Site
          {
            OFFSET 0 0 0
          }
        }
      }
    }
  }
}
MOTION
Frames:	4
Frame Time:	0.0333333
-4.5996 92.795 -32.7782 -105.999 -82.6032 -105.172 0 -3.55271e-015 4.66705 -91.628 -0.757229 -88.8457 9.33409 -1.77636e-015 3.55271e-015 1.54897 -3.23979 -4.53893 11.0269 -7.10543e-015 -3.55271e-015 1.92788 -3.0298 -0.58167 27.2125 -7.10543e-015 -10.2659 -7.78692 6.41028 30.8115 10.9224 -2.22045e-015 0 9.3112 7.5741 -28.8665 23.8429 -1.55531 -7.12573 -123.333 -10.3139 -3.58144 14.1892 2.84217e-014 7.10543e-015 -35.7801 -3.04103 -6.5168 29.5651 1.42109e-014 1.42109e-014 21.7245 -56.7516 47.1658 25.3936 -3.19744e-014 2.84217e-014 28.0572 0.0236122 21.9658 2.18163 2.84217e-014 -3.55271e-015 -1.48166e-007 -6.98421e-008 -9.83302e-007 6.77462 0.0865053 -1.22157 -21.6739 1.19639 -9.42508 23.8431 1.55531 -7.12577 117.704 12.1225 -178.55 -14.1892 0.000694916 0 -12.8609 -34.3936 60.0494 -29.5651 0 -4.27958e-007 30.7165 -19.9826 65.7452 -25.3936 2.7868e-008 -5.56579e-007 26.9648 1.08723 14.5508 -2.18182 -0.000553688 -9.22559e-006 1.72705e-007 -1.54327e-008 -8.96002e-008 -6.77445 -0.0859989 1.22158 -21.6739 1.19639 -9.42508 -8.89671 -5.28428 -4.10676 83.6047 3.18227 97.2966 43.6759 -3.55271e-015 -1.42109e-014 4.1018 5.80901 -16.4004 45.3154 -1.06581e-014 -2.4869e-014 84.2645 -17.056 91.6106 14.6877 -1.77636e-015 -3.55271e-015 7.13107 1.85222e-006 -1.70109e-006 8.89671 -5.28429 -4.10672 97.9318 -2.31474 -82.995 -43.676 7.10543e-015 -3.48883e-006 1.81369 -2.31366 -11.3496 -45.3154 -5.32907e-015 3.71138e-006 89.0062 -17.7253 91.6934 -14.6877 -1.30235e-006 -3.88953e-006 7.13107 5.18976e-007 3.81619e-006 
-4.40266 92.8235 -32.662 -103.943 -82.7877 -103.668 0 3.55271e-015 4.66705 -91.6511 -0.80883 -88.8898 9.33409 0 7.10543e-015 1.65182 -3.28537 -4.62193 11.0269 -1.77636e-015 -3.55271e-015 2.03546 -3.06268 -0.664803 27.2125 -3.55271e-015 -10.2659 -7.83886 6.2828 29.9128 10.9224 -2.66454e-015 -1.42109e-014 9.59328 7.41909 -28.5722 23.8429 -1.55531 -7.12573 -123.434 -10.185 -3.87594 14.1892 0 0 -36.9793 -2.84116 -6.46108 29.5651 1.42109e-014 1.42109e-014 22.4473 -57.0563 47.4677 25.3936 -2.13163e-014 2.84217e-014 27.6673 -0.0944659 22.3639 2.18163 2.13163e-014 1.77636e-015 -1.48166e-007 -6.98421e-008 -9.83302e-007 6.77462 0.0865053 -1.22157 -21.6739 1.19639 -9.42508 23.8431 1.55531 -7.12577 119.759 12.141 -178.881 -14.1892 0.000694916 -7.10543e-015 -14.8885 -34.3082 52.2289 -29.5651 0 -4.27958e-007 30.0574 -18.5469 65.9915 -25.3936 2.7868e-008 -5.56579e-007 26.9565 1.08111 14.4745 -2.18182 -0.000553688 -9.22559e-006 1.72705e-007 -1.54327e-008 -8.96002e-008 -6.77445 -0.0859989 1.22158 -21.6739 1.19639 -9.42508 -8.89671 -5.28428 -4.10676 84.3703 2.33858 98.6067 43.6759 -1.42109e-014 -1.42109e-014 3.94168 4.75908 -18.03 45.3154 -3.55271e-015 -2.13163e-014 85.3739 -15.7389 91.658 14.6877 -2.66454e-015 -3.55271e-015 7.13107 1.85222e-006 -1.70109e-006 8.89671 -5.28429 -4.10672 97.9296 -1.79558 -83.6726 -43.676 7.99361e-015 -3.48883e-006 1.4378 -2.3301 -9.70828 -45.3154 -7.10543e-015 3.71138e-006 89.0111 -18.246 91.6901 -14.6877 -1.30235e-006 -3.88953e-006 7.13107 5.18976e-007 3.81619e-006 
-4.28912 92.7992 -32.5447 -102.077 -82.9128 -102.325 8.88178e-016 -3.55271e-015 4.66705 -91.6673 -0.849208 -88.9008 9.33409 -1.77636e-015 0 1.73318 -3.31698 -4.6395 11.0269 -1.77636e-015 3.55271e-015 2.12003 -3.08427 -0.682523 27.2125 -7.10543e-015 -10.2659 -7.94592 6.17258 29.01 10.9224 -3.10862e-015 -1.42109e-014 9.92042 7.28912 -28.3611 23.8429 -1.55531 -7.12573 -123.64 -10.0746 -4.13279 14.1892 -1.42109e-014 0 -37.975 -2.58254 -6.1689 29.5651 2.84217e-014 1.42109e-014 22.5974 -57.4828 47.1573 25.3936 -3.19744e-014 2.84217e-014 27.4809 -0.148606 22.5376 2.18163 4.9738e-014 3.55271e-015 -1.48166e-007 -6.98421e-008 -9.83302e-007 6.77462 0.0865053 -1.22157 -21.6739 1.19639 -9.42508 23.8431 1.55531 -7.12577 121.689 12.1128 -179.276 -14.1892 0.000694916 -7.10543e-015 -17.177 -33.3546 44.1183 -29.5651 0 -4.27958e-007 29.6181 -18.0447 65.9537 -25.3936 2.7868e-008 -5.56579e-007 26.6375 1.12752 14.297 -2.18182 -0.000553688 -9.22559e-006 1.72705e-007 -1.54327e-008 -8.96002e-008 -6.77445 -0.0859989 1.22158 -21.6739 1.19639 -9.42508 -8.89671 -5.28428 -4.10676 85.0171 1.71434 99.8588 43.6759 -1.06581e-014 -1.77636e-014 3.65675 3.56681 -19.3826 45.3154 -7.10543e-015 -2.4869e-014 86.3502 -14.6464 91.6846 14.6877 -1.77636e-015 -3.55271e-015 7.13107 1.85222e-006 -1.70109e-006 8.89671 -5.28429 -4.10672 97.8211 -1.30242 -84.093 -43.676 6.21725e-015 -3.48883e-006 1.20612 -2.21036 -8.66412 -45.3154 -7.99361e-015 3.71138e-006 89.0419 -18.6286 91.6848 -14.6877 -1.30235e-006 -3.88953e-006 7.13107 5.18976e-007 3.81619e-006 
-4.29076 92.737 -32.4482 -100.622 -83.0418 -101.285 8.88178e-016 3.55271e-015 4.66705 -91.6649 -0.858975 -88.8607 9.33409 0 -3.55271e-015 1.75354 -3.31151 -4.55852 11.0269 -3.55271e-015 0 2.13956 -3.07638 -0.601677 27.2125 -7.10543e-015 -10.2659 -7.97878 6.08816 28.0723 10.9224 -2.66454e-015 0 10.1789 7.14152 -28.3685 23.8429 -1.55531 -7.12573 -123.938 -9.98896 -4.33559 14.1892 1.42109e-014 0 -38.6868 -2.43342 -5.8983 29.5651 4.26326e-014 0 22.2313 -57.3709 46.5778 25.3936 -2.13163e-014 3.55271e-014 27.5482 -0.13667 22.5147 2.18163 2.84217e-014 1.77636e-015 -1.48166e-007 -6.98421e-008 -9.83302e-007 6.77462 0.0865053 -1.22157 -21.6739 1.19639 -9.42508 23.8431 1.55531 -7.12577 123.133 12.0802 -179.578 -14.1892 0.000694916 0 -19.9853 -31.1946 36.316 -29.5651 1.42109e-014 -4.27958e-007 28.9877 -18.935 65.0333 -25.3936 2.7868e-008 -5.56579e-007 26.4677 1.14942 14.1711 -2.18182 -0.000553688 -9.22559e-006 1.72705e-007 -1.54327e-008 -8.96002e-008 -6.77445 -0.0859989 1.22158 -21.6739 1.19639 -9.42508 -8.89671 -5.28428 -4.10676 85.5277 1.21611 100.921 43.6759 -1.06581e-014 -1.77636e-014 3.62756 3.25104 -20.3111 45.3154 -7.10543e-015 -1.77636e-014 87.1734 -13.715 91.6783 14.6877 -1.77636e-015 0 7.13107 1.85222e-006 -1.70109e-006 8.89671 -5.28429 -4.10672 97.6899 -0.952057 -84.1748 -43.676 6.21725e-015 -3.48883e-006 1.05036 -2.10686 -8.32503 -45.3154 -6.21725e-015 3.71138e-006 89.2147 -18.8845 91.6818 -14.6877 -1.30235e-006 -3.88953e-006 7.13107 5.18976e-007 3.81619e-006 
